<mxfile host="app.diagrams.net" modified="2024-03-22T11:52:30.114Z" agent="Mozilla/5.0 (X11; Linux x86_64; rv:123.0) Gecko/20100101 Firefox/123.0" etag="vb-vYHVID1fseo7BKelE" version="24.0.7" type="github">
  <diagram name="Page-1" id="e7e014a7-5840-1c2e-5031-d8a46d1fe8dd">
    <mxGraphModel dx="1105" dy="544" grid="1" gridSize="10" guides="1" tooltips="1" connect="1" arrows="1" fold="1" page="1" pageScale="1" pageWidth="1169" pageHeight="826" background="none" math="0" shadow="0">
      <root>
        <mxCell id="0" />
        <mxCell id="1" parent="0" />
        <mxCell id="2" value="Študent" style="swimlane;whiteSpace=wrap" parent="1" vertex="1">
          <mxGeometry x="40" y="70" width="280" height="570" as="geometry" />
        </mxCell>
        <mxCell id="5" value="" style="ellipse;shape=startState;fillColor=#000000;strokeColor=#ff0000;" parent="2" vertex="1">
          <mxGeometry x="70" y="30" width="30" height="30" as="geometry" />
        </mxCell>
        <mxCell id="6" value="" style="edgeStyle=elbowEdgeStyle;elbow=horizontal;verticalAlign=bottom;endArrow=open;endSize=8;strokeColor=#FF0000;endFill=1;rounded=0;entryX=0.5;entryY=0;entryDx=0;entryDy=0;" parent="2" source="5" target="C2BcoFN70ZOU8DqxQfOr-58" edge="1">
          <mxGeometry x="100" y="40" as="geometry">
            <mxPoint x="85.26086956521749" y="90" as="targetPoint" />
          </mxGeometry>
        </mxCell>
        <mxCell id="C2BcoFN70ZOU8DqxQfOr-58" value="Študent sa prihlási do&lt;br&gt;rezervačného systému." style="rounded=1;whiteSpace=wrap;html=1;arcSize=40;fontColor=#000000;fillColor=#ffffc0;strokeColor=#ff0000;" vertex="1" parent="2">
          <mxGeometry x="25" y="90" width="125" height="60" as="geometry" />
        </mxCell>
        <mxCell id="C2BcoFN70ZOU8DqxQfOr-67" value="Študent sa prihlási do&lt;br&gt;rezervačného systému." style="rounded=1;whiteSpace=wrap;html=1;arcSize=40;fontColor=#000000;fillColor=#ffffc0;strokeColor=#ff0000;" vertex="1" parent="2">
          <mxGeometry x="25" y="190" width="125" height="60" as="geometry" />
        </mxCell>
        <mxCell id="C2BcoFN70ZOU8DqxQfOr-71" value="" style="edgeStyle=elbowEdgeStyle;elbow=horizontal;verticalAlign=bottom;endArrow=open;endSize=8;strokeColor=#FF0000;endFill=1;rounded=0;entryX=0.5;entryY=0;entryDx=0;entryDy=0;exitX=0.5;exitY=1;exitDx=0;exitDy=0;" edge="1" parent="2" source="C2BcoFN70ZOU8DqxQfOr-58" target="C2BcoFN70ZOU8DqxQfOr-67">
          <mxGeometry x="60" y="-30" as="geometry">
            <mxPoint x="105" y="110" as="targetPoint" />
            <mxPoint x="105" y="80" as="sourcePoint" />
            <Array as="points" />
          </mxGeometry>
        </mxCell>
        <mxCell id="C2BcoFN70ZOU8DqxQfOr-72" value="Študent odošle žiadosť&lt;br&gt;o rezerváciu izby" style="rounded=1;whiteSpace=wrap;html=1;arcSize=40;fontColor=#000000;fillColor=#ffffc0;strokeColor=#ff0000;" vertex="1" parent="2">
          <mxGeometry x="30" y="290" width="115" height="67" as="geometry" />
        </mxCell>
        <mxCell id="C2BcoFN70ZOU8DqxQfOr-76" value="" style="edgeStyle=elbowEdgeStyle;elbow=horizontal;verticalAlign=bottom;endArrow=open;endSize=8;strokeColor=#FF0000;endFill=1;rounded=0;entryX=0.5;entryY=0;entryDx=0;entryDy=0;exitX=0.5;exitY=1;exitDx=0;exitDy=0;" edge="1" parent="2" source="C2BcoFN70ZOU8DqxQfOr-67" target="C2BcoFN70ZOU8DqxQfOr-72">
          <mxGeometry x="20" y="-100" as="geometry">
            <mxPoint x="108" y="210" as="targetPoint" />
            <mxPoint x="108" y="170" as="sourcePoint" />
            <Array as="points" />
          </mxGeometry>
        </mxCell>
        <mxCell id="3" value="Správca" style="swimlane;whiteSpace=wrap" parent="1" vertex="1">
          <mxGeometry x="320" y="70" width="280" height="570" as="geometry" />
        </mxCell>
        <mxCell id="C2BcoFN70ZOU8DqxQfOr-77" value="Správca dostane&lt;br&gt;žiadosť" style="rounded=1;whiteSpace=wrap;html=1;arcSize=40;fontColor=#000000;fillColor=#ffffc0;strokeColor=#ff0000;" vertex="1" parent="3">
          <mxGeometry x="72.5" y="70" width="120" height="40" as="geometry" />
        </mxCell>
        <mxCell id="C2BcoFN70ZOU8DqxQfOr-78" value="" style="edgeStyle=orthogonalEdgeStyle;html=1;verticalAlign=bottom;endArrow=open;endSize=8;strokeColor=#ff0000;rounded=0;" edge="1" source="C2BcoFN70ZOU8DqxQfOr-77" parent="3">
          <mxGeometry relative="1" as="geometry">
            <mxPoint x="132" y="160" as="targetPoint" />
          </mxGeometry>
        </mxCell>
        <mxCell id="C2BcoFN70ZOU8DqxQfOr-79" value="Správca skontroluje&lt;br&gt;voľné izby" style="rounded=1;whiteSpace=wrap;html=1;arcSize=40;fontColor=#000000;fillColor=#ffffc0;strokeColor=#ff0000;" vertex="1" parent="3">
          <mxGeometry x="73" y="170" width="120" height="40" as="geometry" />
        </mxCell>
        <mxCell id="C2BcoFN70ZOU8DqxQfOr-80" value="" style="edgeStyle=orthogonalEdgeStyle;html=1;verticalAlign=bottom;endArrow=open;endSize=8;strokeColor=#ff0000;rounded=0;" edge="1" source="C2BcoFN70ZOU8DqxQfOr-79" parent="3">
          <mxGeometry relative="1" as="geometry">
            <mxPoint x="133" y="280" as="targetPoint" />
          </mxGeometry>
        </mxCell>
        <mxCell id="4" value="Izba" style="swimlane;whiteSpace=wrap" parent="1" vertex="1">
          <mxGeometry x="600" y="70" width="280" height="570" as="geometry" />
        </mxCell>
        <mxCell id="38" value="" style="ellipse;shape=endState;fillColor=#000000;strokeColor=#ff0000" parent="4" vertex="1">
          <mxGeometry x="130" y="500" width="30" height="30" as="geometry" />
        </mxCell>
        <mxCell id="C2BcoFN70ZOU8DqxQfOr-51" value="" style="endArrow=open;strokeColor=#FF0000;endFill=1;rounded=0;exitX=0.5;exitY=1;exitDx=0;exitDy=0;entryX=0;entryY=0.5;entryDx=0;entryDy=0;" edge="1" parent="1" source="C2BcoFN70ZOU8DqxQfOr-72" target="C2BcoFN70ZOU8DqxQfOr-77">
          <mxGeometry relative="1" as="geometry">
            <mxPoint x="190" y="407.5" as="sourcePoint" />
            <mxPoint x="390" y="155" as="targetPoint" />
            <Array as="points">
              <mxPoint x="128" y="470" />
              <mxPoint x="240" y="470" />
              <mxPoint x="240" y="160" />
            </Array>
          </mxGeometry>
        </mxCell>
      </root>
    </mxGraphModel>
  </diagram>
</mxfile>
